<svg xmlns="http://www.w3.org/2000/svg" width="88" height="88" viewBox="0 0 88 88">
  <path fill="#A30606" d="M85.877,28.627 L59.725,28.627 L59.725,2.124 C59.725,1.02 58.829,0.124 57.725,0.124 L30.628,0.124 C29.524,0.124 28.628,1.02 28.628,2.124 L28.628,28.628 L2.123,28.628 C1.019,28.628 0.123,29.524 0.123,30.628 L0.123,57.725 C0.123,58.829 1.019,59.725 2.123,59.725 L28.628,59.725 L28.628,85.877 C28.628,86.981 29.524,87.877 30.628,87.877 L57.725,87.877 C58.829,87.877 59.725,86.981 59.725,85.877 L59.725,59.724 L85.877,59.724 C86.981,59.724 87.877,58.828 87.877,57.724 L87.877,30.627 C87.877,29.523 86.981,28.627 85.877,28.627 Z"/>
</svg>
