<svg xmlns="http://www.w3.org/2000/svg" width="160" height="160" viewBox="0 0 160 160">
  <path fill="#0098C1" fill-rule="evenodd" d="M720,416 C764.18278,416 800,380.18278 800,336 C800,291.81722 764.18278,256 720,256 C675.81722,256 640,291.81722 640,336 C640,380.18278 675.81722,416 720,416 Z M682.128,346.888 C681.424,346.888 680.88,346.312 680.88,345.64 L680.88,329.608 L675.44,346.184 C675.312,346.664 675.056,346.888 674.704,346.888 C674.352,346.888 674.064,346.664 673.936,346.184 L668.56,329.608 L668.56,405.608 C668.56,406.312 667.984,406.888 667.28,406.888 C666.576,406.888 666,406.312 666,405.608 L666,327.304 C666,326.216 666.928,325.288 668.048,325.288 C668.944,325.288 669.712,325.864 669.968,326.664 L674.704,341.224 L679.472,326.664 C679.728,325.864 680.464,325.288 681.36,325.288 C682.48,325.288 683.376,326.216 683.376,327.304 L683.376,345.64 C683.376,346.312 682.832,346.888 682.128,346.888 Z M687.263704,339.016 C687.263704,334.536 689.631704,330.92 693.535704,330.92 C697.599704,330.92 699.647704,334.568 699.647704,338.536 C699.647704,339.272 699.135704,339.784 698.271704,339.784 L689.631704,339.784 C689.727704,342.888 691.327704,345.224 694.079704,345.224 C695.199704,345.224 696.287704,344.776 697.215704,343.88 C697.375704,343.72 697.599704,343.656 697.823704,343.656 C698.335704,343.656 698.751704,344.072 698.751704,344.584 C698.751704,344.84 698.623704,345.064 698.431704,345.256 C697.183704,346.472 695.647704,347.144 693.887704,347.144 C689.759704,347.144 687.263704,343.752 687.263704,339.016 Z M693.503704,332.84 C690.783704,332.84 689.695704,335.816 689.631704,338.088 L697.375704,338.088 C697.343704,335.72 696.319704,332.84 693.503704,332.84 Z M713.295407,325.288 C713.935407,325.288 714.447407,325.8 714.447407,326.44 L714.447407,345.736 C714.447407,346.376 713.935407,346.888 713.295407,346.888 C712.687407,346.888 712.143407,346.376 712.143407,345.736 L712.143407,344.552 C711.247407,346.152 709.711407,347.144 708.079407,347.144 C704.623407,347.144 702.543407,343.912 702.543407,339.048 C702.543407,334.248 704.591407,330.92 708.079407,330.92 C709.647407,330.92 711.215407,331.816 712.143407,333.576 L712.143407,326.44 C712.143407,325.8 712.687407,325.288 713.295407,325.288 Z M708.655407,345.096 C710.127407,345.096 711.567407,343.944 712.143407,342.6 L712.143407,335.496 C711.567407,334.152 710.127407,332.968 708.655407,332.968 C706.127407,332.968 704.943407,335.688 704.943407,339.048 C704.943407,342.376 706.127407,345.096 708.655407,345.096 Z M720.095111,328.136 C719.263111,328.136 718.527111,327.432 718.527111,326.568 C718.527111,325.704 719.263111,325 720.095111,325 C720.959111,325 721.663111,325.704 721.663111,326.568 C721.663111,327.432 720.959111,328.136 720.095111,328.136 Z M720.095111,346.888 C719.487111,346.888 718.975111,346.376 718.975111,345.736 L718.975111,332.328 C718.975111,331.688 719.487111,331.176 720.127111,331.176 C720.735111,331.176 721.247111,331.688 721.247111,332.328 L721.247111,345.736 C721.247111,346.376 720.735111,346.888 720.095111,346.888 Z M727.182815,346.888 C726.478815,346.888 725.902815,346.312 725.902815,345.608 L725.902815,326.792 C725.902815,325.896 726.414815,325.416 727.278815,325.416 L735.886815,325.416 C736.494815,325.416 737.006815,325.928 737.006815,326.536 C737.006815,327.144 736.494815,327.656 735.886815,327.656 L728.462815,327.656 L728.462815,334.728 L735.662815,334.728 C736.270815,334.728 736.782815,335.24 736.782815,335.848 C736.782815,336.456 736.270815,336.968 735.662815,336.968 L728.462815,336.968 L728.462815,345.608 C728.462815,346.312 727.886815,346.888 727.182815,346.888 Z M739.742518,339.016 C739.742518,334.536 742.110519,330.92 746.014519,330.92 C750.078518,330.92 752.126518,334.568 752.126518,338.536 C752.126518,339.272 751.614519,339.784 750.750518,339.784 L742.110519,339.784 C742.206519,342.888 743.806519,345.224 746.558518,345.224 C747.678518,345.224 748.766518,344.776 749.694518,343.88 C749.854519,343.72 750.078518,343.656 750.302519,343.656 C750.814518,343.656 751.230519,344.072 751.230519,344.584 C751.230519,344.84 751.102518,345.064 750.910518,345.256 C749.662519,346.472 748.126518,347.144 746.366518,347.144 C742.238518,347.144 739.742518,343.752 739.742518,339.016 Z M745.982519,332.84 C743.262519,332.84 742.174519,335.816 742.110519,338.088 L749.854519,338.088 C749.822519,335.72 748.798519,332.84 745.982519,332.84 Z M755.022222,339.016 C755.022222,334.536 757.390222,330.92 761.294222,330.92 C765.358222,330.92 767.406222,334.568 767.406222,338.536 C767.406222,339.272 766.894222,339.784 766.030222,339.784 L757.390222,339.784 C757.486222,342.888 759.086222,345.224 761.838222,345.224 C762.958222,345.224 764.046222,344.776 764.974222,343.88 C765.134222,343.72 765.358222,343.656 765.582222,343.656 C766.094222,343.656 766.510222,344.072 766.510222,344.584 C766.510222,344.84 766.382222,345.064 766.190222,345.256 C764.942222,346.472 763.406222,347.144 761.646222,347.144 C757.518222,347.144 755.022222,343.752 755.022222,339.016 Z M761.262222,332.84 C758.542222,332.84 757.454222,335.816 757.390222,338.088 L765.134222,338.088 C765.102222,335.72 764.078222,332.84 761.262222,332.84 Z M772.221926,346.888 C771.581926,346.888 771.069926,346.309583 771.069926,345.586562 L771.069926,267.301438 C771.069926,266.578417 771.581926,266 772.221926,266 C772.829926,266 773.341926,266.578417 773.341926,267.301438 L773.341926,345.586562 C773.341926,346.309583 772.829926,346.888 772.221926,346.888 Z" transform="translate(-640 -256)"/>
</svg>
