<svg xmlns="http://www.w3.org/2000/svg" width="160" height="176" viewBox="0 0 160 176">
  <path fill="#0098C1" fill-rule="evenodd" d="M80,160 C124.18278,160 160,124.18278 160,80 C160,35.81722 124.18278,0 80,0 C35.81722,0 0,35.81722 0,80 C0,124.18278 35.81722,160 80,160 Z M104.422193,112.290323 C102.066064,112.290323 100.245419,110.362581 100.245419,108.113548 L100.245419,54.4580645 L82.0389671,109.934194 C81.61058,111.540645 80.7538058,112.290323 79.5757413,112.290323 C78.3976768,112.290323 77.4338058,111.540645 77.0054187,109.934194 L59.0131607,54.4580645 L59.0131607,171.716129 C59.0131607,174.072258 57.0854187,176 54.7292897,176 C52.3731607,176 50.4454187,174.072258 50.4454187,171.716129 L50.4454187,46.7470968 C50.4454187,43.1058065 53.5512252,40 57.2996123,40 C60.298322,40 62.8686446,41.9277419 63.7254187,44.6051613 L79.5757413,93.3341935 L95.5331607,44.6051613 C96.3899349,41.9277419 98.8531607,40 101.85187,40 C105.600257,40 108.598967,43.1058065 108.598967,46.7470968 L108.598967,108.113548 C108.598967,110.362581 106.778322,112.290323 104.422193,112.290323 Z"/>
</svg>
