<svg xmlns="http://www.w3.org/2000/svg" width="240" height="264" viewBox="0 0 240 264">
  <path fill="#FFFFFF" fill-rule="evenodd" d="M120,240 C186.27417,240 240,186.27417 240,120 C240,53.72583 186.27417,0 120,0 C53.72583,0 0,53.72583 0,120 C0,186.27417 53.72583,240 120,240 Z M156.633289,168.435484 C153.099096,168.435484 150.368128,165.543871 150.368128,162.170323 L150.368128,81.6870968 L123.058451,164.90129 C122.41587,167.310968 121.130709,168.435484 119.363612,168.435484 C117.596515,168.435484 116.150709,167.310968 115.508128,164.90129 L88.519741,81.6870968 L88.519741,257.574194 C88.519741,261.108387 85.6281281,264 82.0939346,264 C78.559741,264 75.6681281,261.108387 75.6681281,257.574194 L75.6681281,70.1206452 C75.6681281,64.6587097 80.3268378,60 85.9494184,60 C90.447483,60 94.3029668,62.8916129 95.5881281,66.9077419 L119.363612,140.00129 L143.299741,66.9077419 C144.584902,62.8916129 148.279741,60 152.777806,60 C158.400386,60 162.898451,64.6587097 162.898451,70.1206452 L162.898451,162.170323 C162.898451,165.543871 160.167483,168.435484 156.633289,168.435484 Z"/>
</svg>
