<svg xmlns="http://www.w3.org/2000/svg" width="90" height="90" viewBox="0 0 90 90">
  <path fill="#0098C1" d="M772.85,421.85 C781.616667,413.05 786,402.433333 786,390 C786,377.6 781.616667,367 772.85,358.2 C764.05,349.4 753.433333,345 741,345 C728.566667,345 717.966667,349.4 709.2,358.2 C700.4,367 696,377.6 696,390 C696,402.433333 700.4,413.05 709.2,421.85 C717.966667,430.616667 728.566667,435 741,435 C753.433333,435 764.05,430.616667 772.85,421.85 Z M741,352.65 C751.366667,352.65 760.183333,356.283333 767.45,363.55 C774.783333,370.883333 778.45,379.7 778.45,390 C778.45,400.366667 774.783333,409.2 767.45,416.5 C760.183333,423.8 751.366667,427.45 741,427.45 C730.7,427.45 721.883333,423.8 714.55,416.5 C707.25,409.2 703.6,400.366667 703.6,390 C703.6,379.7 707.25,370.883333 714.55,363.55 C721.883333,356.283333 730.7,352.65 741,352.65 Z M725,411.5 C725.7,411.966667 726.433333,412.116667 727.2,411.95 L759.85,405.55 C760.683333,405.383333 761.316667,404.95 761.75,404.25 C762.216667,403.583333 762.366667,402.866667 762.2,402.1 C762.033333,401.266667 761.616667,400.633333 760.95,400.2 C760.25,399.7 759.516667,399.55 758.75,399.75 L726.1,406.1 C725.266667,406.266667 724.633333,406.7 724.2,407.4 C723.733333,408.066667 723.583333,408.8 723.75,409.6 C723.916667,410.4 724.333333,411.033333 725,411.5 Z M717.55,386.45 C718.783333,387.683333 720.25,388.3 721.95,388.3 C723.65,388.3 725.083333,387.683333 726.25,386.45 C727.483333,385.283333 728.1,383.85 728.1,382.15 C728.1,380.416667 727.483333,378.95 726.25,377.75 C725.083333,376.616667 723.65,376.05 721.95,376.05 C720.25,376.05 718.783333,376.616667 717.55,377.75 C716.416667,378.95 715.85,380.416667 715.85,382.15 C715.85,383.85 716.416667,385.283333 717.55,386.45 Z M764.3,377.75 C763.133333,376.616667 761.7,376.05 760,376.05 C758.3,376.05 756.833333,376.616667 755.6,377.75 C754.466667,378.95 753.9,380.416667 753.9,382.15 C753.9,383.85 754.466667,385.283333 755.6,386.45 C756.833333,387.683333 758.3,388.3 760,388.3 C761.7,388.3 763.133333,387.683333 764.3,386.45 C765.533333,385.283333 766.15,383.85 766.15,382.15 C766.15,380.416667 765.533333,378.95 764.3,377.75 Z" transform="translate(-696 -345)"/>
</svg>
