<svg xmlns="http://www.w3.org/2000/svg" width="90" height="90" viewBox="0 0 90 90">
  <path fill="#0098C1" d="M525.8,421.85 C534.6,413.05 539,402.433333 539,390 C539,377.566667 534.6,366.966667 525.8,358.2 C517.033333,349.4 506.433333,345 494,345 C481.566667,345 470.95,349.4 462.15,358.2 C453.383333,366.966667 449,377.566667 449,390 C449,402.433333 453.383333,413.05 462.15,421.85 C470.95,430.616667 481.566667,435 494,435 C506.433333,435 517.033333,430.616667 525.8,421.85 Z M494,352.6 C504.333333,352.6 513.15,356.25 520.45,363.55 C527.783333,370.883333 531.45,379.7 531.45,390 C531.45,400.366667 527.783333,409.183333 520.45,416.45 C513.15,423.783333 504.333333,427.45 494,427.45 C483.666667,427.45 474.85,423.783333 467.55,416.45 C460.25,409.183333 456.6,400.366667 456.6,390 C456.6,379.7 460.25,370.883333 467.55,363.55 C474.85,356.25 483.666667,352.6 494,352.6 Z M470.7,399.2 C470.733333,406.333333 472.933333,411.716667 477.3,415.35 L477.35,415.4 C481.283333,418.833333 486.933333,420.55 494.3,420.55 C501.333333,420.55 506.85,418.783333 510.85,415.25 C515.25,411.483333 517.466667,406.133333 517.5,399.2 C517.5,398.333333 517.2,397.616667 516.6,397.05 C516.033333,396.483333 515.333333,396.2 514.5,396.2 L473.65,396.2 C472.85,396.2 472.15,396.483333 471.55,397.05 C470.983333,397.616667 470.7,398.333333 470.7,399.2 Z M481.15,410.85 C478.783333,408.716667 477.35,405.8 476.85,402.1 L511.35,402.1 C510.85,405.733333 509.383333,408.633333 506.95,410.8 L506.95,410.75 C503.85,413.35 499.633333,414.65 494.3,414.65 C488.633333,414.65 484.25,413.383333 481.15,410.85 Z M470.55,386.45 C471.783333,387.65 473.25,388.25 474.95,388.25 C476.65,388.25 478.083333,387.65 479.25,386.45 C480.45,385.283333 481.05,383.85 481.05,382.15 C481.05,380.416667 480.45,378.95 479.25,377.75 C478.083333,376.583333 476.65,376 474.95,376 C473.25,376 471.783333,376.583333 470.55,377.75 C469.383333,378.95 468.8,380.416667 468.8,382.15 C468.8,383.85 469.383333,385.283333 470.55,386.45 Z M513,388.25 C514.7,388.25 516.133333,387.65 517.3,386.45 C518.5,385.283333 519.1,383.85 519.1,382.15 C519.1,380.416667 518.5,378.95 517.3,377.75 C516.133333,376.583333 514.7,376 513,376 C511.3,376 509.833333,376.583333 508.6,377.75 C507.433333,378.95 506.85,380.416667 506.85,382.15 C506.85,383.85 507.433333,385.283333 508.6,386.45 C509.833333,387.65 511.3,388.25 513,388.25 Z" transform="translate(-449 -345)"/>
</svg>
