<svg xmlns="http://www.w3.org/2000/svg" width="90" height="90" viewBox="0 0 90 90">
  <path fill="#0098C1" d="M1019.8,421.85 C1028.6,413.05 1033,402.433333 1033,390 C1033,377.566667 1028.6,366.966667 1019.8,358.2 C1011.03333,349.4 1000.43333,345 988,345 C975.566667,345 964.95,349.4 956.15,358.2 C947.383333,366.966667 943,377.566667 943,390 C943,402.433333 947.383333,413.05 956.15,421.85 C964.95,430.616667 975.566667,435 988,435 C1000.43333,435 1011.03333,430.616667 1019.8,421.85 Z M988,352.65 C998.333333,352.65 1007.15,356.283333 1014.45,363.55 C1021.78333,370.883333 1025.45,379.7 1025.45,390 C1025.45,400.366667 1021.78333,409.183333 1014.45,416.45 C1007.15,423.783333 998.333333,427.45 988,427.45 C977.666667,427.45 968.85,423.783333 961.55,416.45 C954.25,409.183333 950.6,400.366667 950.6,390 C950.6,379.7 954.25,370.883333 961.55,363.55 C968.85,356.283333 977.666667,352.65 988,352.65 Z M962.25,408.05 C962.216667,408.85 962.466667,409.566667 963,410.2 C963.533333,410.8 964.2,411.133333 965,411.2 C965.833333,411.233333 966.55,411 967.15,410.5 C980.916667,398.466667 994.7,398.466667 1008.5,410.5 C1009.1,411 1009.8,411.233333 1010.6,411.2 C1011.43333,411.133333 1012.11667,410.8 1012.65,410.2 C1013.18333,409.566667 1013.43333,408.85 1013.4,408.05 C1013.33333,407.216667 1012.98333,406.55 1012.35,406.05 C995.983333,391.75 979.616667,391.75 963.25,406.05 C962.65,406.55 962.316667,407.216667 962.25,408.05 Z M957.7,381.15 C957.333333,381.85 957.266667,382.583333 957.5,383.35 C957.766667,384.15 958.266667,384.733333 959,385.1 C959.7,385.433333 960.45,385.483333 961.25,385.25 L974.9,380.75 C975.7,380.483333 976.283333,380 976.65,379.3 C976.983333,378.566667 977.033333,377.816667 976.8,377.05 C976.533333,376.25 976.05,375.683333 975.35,375.35 C974.616667,374.983333 973.866667,374.916667 973.1,375.15 L959.4,379.65 C958.6,379.916667 958.033333,380.416667 957.7,381.15 Z M1000.65,375.35 C999.95,375.683333 999.466667,376.25 999.2,377.05 C998.966667,377.816667 999.033333,378.566667 999.4,379.3 C999.733333,380 1000.28333,380.483333 1001.05,380.75 L1014.75,385.25 C1015.55,385.483333 1016.3,385.433333 1017,385.1 C1017.73333,384.733333 1018.23333,384.15 1018.5,383.35 C1018.73333,382.583333 1018.68333,381.85 1018.35,381.15 C1017.95,380.416667 1017.36667,379.916667 1016.6,379.65 L1002.9,375.15 C1002.13333,374.916667 1001.38333,374.983333 1000.65,375.35 Z" transform="translate(-943 -345)"/>
</svg>
